<?xml version="1.0" encoding="UTF-8"?>
<svg width="500px" height="300px" viewBox="0 0 500 300" version="1.1" xmlns="http://www.w3.org/2000/svg" xmlns:xlink="http://www.w3.org/1999/xlink">
    <!-- Generator: Sketch 47.1 (45422) - http://www.bohemiancoding.com/sketch -->
    <title>symbol_new_doc</title>
    <desc>Created with Sketch.</desc>
    <defs>
        <rect id="path-1" x="0" y="0" width="148" height="174" rx="9"></rect>
        <rect id="path-2" x="20" y="27" width="108" height="43"></rect>
    </defs>
    <g id="Page-1" stroke="none" stroke-width="1" fill="none" fill-rule="evenodd">
        <g id="symbol_new_doc">
            <circle id="Oval-2" fill="#A1D8FF" cx="250" cy="150" r="130"></circle>
            <circle id="Oval-2" fill="#A1D8FF" cx="111" cy="205" r="12"></circle>
            <circle id="Oval-2-Copy" fill="#A1D8FF" cx="116" cy="229" r="8"></circle>
            <g id="Group" transform="translate(176.000000, 63.000000)">
                <g id="Rectangle-3-Copy">
                    <use fill="#1684FF" fill-rule="evenodd" xlink:href="#path-1"></use>
                    <rect stroke="#343434" stroke-width="4" x="2" y="2" width="144" height="170" rx="9"></rect>
                    <rect stroke="#FFFFFF" stroke-width="4" x="-2" y="-2" width="152" height="178" rx="9"></rect>
                </g>
                <g id="Rectangle-4">
                    <use fill="#FFFFFF" fill-rule="evenodd" xlink:href="#path-2"></use>
                    <rect stroke="#343434" stroke-width="4" x="22" y="29" width="104" height="39"></rect>
                </g>
                <polyline id="Path-2" stroke="#343434" stroke-width="4" points="60 68.0997512 80.0997512 48 99.7722881 67.6725369"></polyline>
                <circle id="Oval" stroke="#343434" stroke-width="4" cx="38.5" cy="44.5" r="8.5"></circle>
                <polyline id="Path-2-Copy" stroke="#343434" stroke-width="4" points="84 68.0997512 104.099751 48 123.772288 67.6725369"></polyline>
                <rect id="Rectangle-5" fill="#FFFFFF" x="20" y="83" width="108" height="7"></rect>
                <rect id="Rectangle-5-Copy" fill="#FFFFFF" x="20" y="97" width="108" height="7"></rect>
            </g>
            <polygon id="Triangle-Copy" fill="#A1D8FF" transform="translate(396.599715, 98.599715) rotate(33.000000) translate(-396.599715, -98.599715) " points="396.599715 86.5997152 408.599715 110.599715 384.599715 110.599715"></polygon>
        </g>
    </g>
</svg>