<?xml version="1.0" encoding="UTF-8"?>
<svg width="500px" height="300px" viewBox="0 0 500 300" version="1.1" xmlns="http://www.w3.org/2000/svg" xmlns:xlink="http://www.w3.org/1999/xlink">
    <!-- Generator: Sketch 47.1 (45422) - http://www.bohemiancoding.com/sketch -->
    <title>symbol_archive</title>
    <desc>Created with Sketch.</desc>
    <defs>
        <path d="M1.33106587,12.6297428 C1.26211863,12.8735197 1.2243173,13.1384227 1.2243173,13.4153714 C1.2243173,13.5106019 1.22888476,13.6057304 1.23799042,13.7001471 L15.8169378,164.869404 C15.9216894,165.955574 16.6002908,166.767578 17.4032647,166.767578 L169.175683,166.767578 C170.059338,166.767578 170.775683,165.790238 170.775683,164.584629 C170.775683,164.489398 170.771115,164.39427 170.76201,164.299853 L156.183062,13.1305958 C156.078311,12.0444258 155.399709,11.2324219 154.596735,11.2324219 L33.8838787,11.2324219 L32.6966101,0.353920269 C32.6745073,0.151400586 32.531321,7.39281123e-16 32.3618919,0 L0.337603252,0 C0.151150124,-3.18708283e-15 5.99703846e-15,0.182227961 0,0.407017544 C0,0.424773558 0.000963744844,0.442510543 0.00288505761,0.460114819 L1.33106587,12.6297428 Z" id="path-1"></path>
        <path d="M33.4531176,11.2324219 L185.238271,11.2324219 L185.238271,11.2324219 C186.121926,11.2324219 186.838271,11.9487663 186.838271,12.8324219 C186.838271,12.8837085 186.835805,12.9349654 186.830881,12.9860152 L172.139493,165.321171 L172.139493,165.321171 C172.060377,166.141527 171.371044,166.767578 170.546882,166.767578 L18.7617295,166.767578 L18.7617295,166.767578 C17.8780739,166.767578 17.1617295,166.051234 17.1617295,165.167578 C17.1617295,165.116292 17.1641954,165.065035 17.1691187,165.013985 L31.8605068,12.6788286 L31.8605068,12.6788286 C31.9396229,11.8584727 32.6289555,11.2324219 33.4531176,11.2324219 Z" id="path-2"></path>
    </defs>
    <g id="Page-1" stroke="none" stroke-width="1" fill="none" fill-rule="evenodd">
        <g id="symbol_archive">
            <circle id="Oval-2" fill="#A1D8FF" cx="250" cy="150" r="130"></circle>
            <g id="Group" transform="translate(156.000000, 63.000000)">
                <g id="Combined-Shape">
                    <use fill="#255C9A" fill-rule="evenodd" xlink:href="#path-1"></use>
                    <path stroke="#353535" stroke-width="4.8" d="M-1.09733174,12.5001251 L-2.3829478,0.720502189 C-2.39716603,0.563861091 -2.39716603,0.563861091 -2.4,0.407017544 C-2.4,-1.05442843 -1.28390723,-2.4 0.337603252,-2.4 L32.3618919,-2.4 C33.8489827,-2.4 34.9357097,-1.25092981 35.082443,0.0935328987 L36.0361964,8.83242187 L154.596735,8.83242187 C156.799816,8.83242188 158.359685,10.6989366 158.571978,12.9002058 L173.150926,164.069463 C173.167424,164.24053 173.175683,164.412544 173.175683,164.584629 C173.175683,166.983123 171.574579,169.167578 169.175683,169.167578 L17.4032647,169.167578 C15.2001836,169.167578 13.6403147,167.301063 13.4280216,165.099794 L-1.15092574,13.930537 C-1.16742368,13.7594698 -1.1756827,13.5874558 -1.1756827,13.4153714 C-1.1756827,13.10617 -1.14932954,12.799753 -1.09733174,12.5001251 Z"></path>
                </g>
                <g id="Mask">
                    <use fill="#1684FF" fill-rule="evenodd" xlink:href="#path-2"></use>
                    <path stroke="#353535" stroke-width="4.8" d="M33.4531176,8.83242187 L185.238271,8.83242187 C187.44741,8.83242187 189.238271,10.6232829 189.238271,12.8324219 C189.238271,12.9606384 189.232106,13.0887808 189.219797,13.2164052 L174.528409,165.551561 C174.330619,167.602451 172.607288,169.167578 170.546882,169.167578 L18.7617295,169.167578 C16.5525905,169.167578 14.7617295,167.376717 14.7617295,165.167578 C14.7617295,165.039362 14.7678943,164.911219 14.7802025,164.783595 L29.4715906,12.4484386 C29.6693809,10.397549 31.3927125,8.83242187 33.4531176,8.83242188 Z"></path>
                </g>
                <g id="np_arrow_89829_000000" opacity="0.5" transform="translate(68.000000, 60.000000)" fill-rule="nonzero" fill="#353535">
                    <polygon id="Shape" points="34.5 58 0 32.625 19.7142857 32.625 19.7142857 0 49.2857143 0 49.2857143 32.625 69 32.625"></polygon>
                </g>
            </g>
            <circle id="Oval-2-Copy-3" fill="#A1D8FF" cx="111.5" cy="114.5" r="8.5"></circle>
            <circle id="Oval-2-Copy-4" fill="#A1D8FF" cx="380.5" cy="237.5" r="15.5"></circle>
            <circle id="Oval-2-Copy-5" fill="#A1D8FF" cx="354.5" cy="252.5" r="9.5"></circle>
        </g>
    </g>
</svg>