<?xml version="1.0" encoding="UTF-8"?>
<svg width="500px" height="300px" viewBox="0 0 500 300" version="1.1" xmlns="http://www.w3.org/2000/svg" xmlns:xlink="http://www.w3.org/1999/xlink">
    <!-- Generator: Sketch 47.1 (45422) - http://www.bohemiancoding.com/sketch -->
    <title>symbol_new_folder</title>
    <desc>Created with Sketch.</desc>
    <defs>
        <path d="M1.6,16 L128.4,16 L128.4,16 C129.283656,16 130,16.7163444 130,17.6 L130,173.167578 L130,173.167578 C130,174.051234 129.283656,174.767578 128.4,174.767578 L1.6,174.767578 L1.6,174.767578 C0.7163444,174.767578 1.16835389e-13,174.051234 1.01030295e-13,173.167578 L8.54174357e-14,17.6 L8.52651283e-14,17.6 C8.51569117e-14,16.7163444 0.7163444,16 1.6,16 Z" id="path-1"></path>
        <path d="M1.6,2.05658118e-14 L35.4,2.05658118e-14 L35.4,2.04281037e-14 C36.2836556,2.02657788e-14 37,0.7163444 37,1.6 L37,173.167578 L37,173.167578 C37,174.051234 36.2836556,174.767578 35.4,174.767578 L1.6,174.767578 L1.6,174.767578 C0.7163444,174.767578 9.02583262e-14,174.051234 9.01501096e-14,173.167578 L8.53045087e-14,1.6 L8.50430837e-14,1.6 C8.49348671e-14,0.7163444 0.7163444,8.60001989e-15 1.6,8.43769499e-15 Z" id="path-2"></path>
        <path d="M14.6,16 L141.4,16 L141.4,16 C142.283656,16 143,16.7163444 143,17.6 L143,173.167578 L143,173.167578 C143,174.051234 142.283656,174.767578 141.4,174.767578 L14.6,174.767578 L14.6,174.767578 C13.7163444,174.767578 13,174.051234 13,173.167578 L13,17.6 L13,17.6 C13,16.7163444 13.7163444,16 14.6,16 Z" id="path-3"></path>
    </defs>
    <g id="Page-1" stroke="none" stroke-width="1" fill="none" fill-rule="evenodd">
        <g id="symbol_new_folder">
            <circle id="Oval-2" fill="#A1D8FF" cx="250" cy="150" r="130"></circle>
            <circle id="Oval-2" fill="#A1D8FF" cx="380" cy="217" r="12"></circle>
            <circle id="Oval-2-Copy-2" stroke="#A1D8FF" stroke-width="6" cx="407.5" cy="189.5" r="15.5"></circle>
            <circle id="Oval-2-Copy" fill="#A1D8FF" cx="120" cy="88" r="8"></circle>
            <g id="Group" transform="translate(174.000000, 59.000000)">
                <g id="Mask">
                    <use fill="#255C9A" fill-rule="evenodd" xlink:href="#path-1"></use>
                    <path stroke="#353535" stroke-width="4.8" d="M1.6,13.6 L128.4,13.6 C130.609139,13.6 132.4,15.390861 132.4,17.6 L132.4,173.167578 C132.4,175.376717 130.609139,177.167578 128.4,177.167578 L1.6,177.167578 C-0.609138999,177.167578 -2.4,175.376717 -2.4,173.167578 L-2.4,17.6 C-2.4,15.390861 -0.609138999,13.6 1.6,13.6 Z"></path>
                </g>
                <g id="Mask">
                    <use fill="#255C9A" fill-rule="evenodd" xlink:href="#path-2"></use>
                    <path stroke="#353535" stroke-width="4.8" d="M1.6,-2.4 L35.4,-2.4 C37.609139,-2.4 39.4,-0.609138999 39.4,1.6 L39.4,173.167578 C39.4,175.376717 37.609139,177.167578 35.4,177.167578 L1.6,177.167578 C-0.609138999,177.167578 -2.4,175.376717 -2.4,173.167578 L-2.4,1.6 C-2.4,-0.609138999 -0.609138999,-2.4 1.6,-2.4 Z"></path>
                </g>
                <g id="Mask">
                    <use fill="#1684FF" fill-rule="evenodd" xlink:href="#path-3"></use>
                    <path stroke="#353535" stroke-width="4.8" d="M14.6,13.6 L141.4,13.6 C143.609139,13.6 145.4,15.390861 145.4,17.6 L145.4,173.167578 C145.4,175.376717 143.609139,177.167578 141.4,177.167578 L14.6,177.167578 C12.390861,177.167578 10.6,175.376717 10.6,173.167578 L10.6,17.6 C10.6,15.390861 12.390861,13.6 14.6,13.6 Z"></path>
                </g>
            </g>
            <polygon id="Triangle" fill="#A1D8FF" transform="translate(75.872595, 111.181252) rotate(-30.000000) translate(-75.872595, -111.181252) " points="75.8725953 102.489909 84.5639382 119.872595 67.1812523 119.872595"></polygon>
        </g>
    </g>
</svg>